<svg width="42" height="45" viewBox="0 0 42 45" fill="none" xmlns="http://www.w3.org/2000/svg">
<path d="M13.9928 34.4598C13.6497 36.9429 14.06 39.0051 15.0091 40.5952C16.3596 42.8578 18.7036 43.9906 21.0251 43.9999C23.3473 44.0093 25.6958 42.8945 27.0488 40.6323C27.9993 39.0432 28.409 36.9758 28.0651 34.4783C30.0911 36.0144 32.1152 36.6954 33.9857 36.6855C36.6442 36.6714 38.822 35.2565 40.0014 33.2733C41.1817 31.2886 41.3694 28.7189 40.0545 26.4295C39.1371 24.8322 37.5376 23.4518 35.1918 22.4887C37.5394 21.5427 39.1449 20.1731 40.0705 18.5812C41.3975 16.299 41.2242 13.7252 40.0539 11.7316C38.8843 9.73914 36.7113 8.31005 34.046 8.28422C32.1617 8.26596 30.1167 8.94679 28.0634 10.4954C28.404 8.01266 27.9868 5.95375 27.0275 4.3691C25.6635 2.11601 23.3055 1 20.9795 1C18.6533 1 16.3006 2.11662 14.9532 4.37452C14.0063 5.96108 13.6072 8.02034 13.9685 10.5015C11.9177 8.98043 9.87398 8.31572 7.99119 8.33884C5.32189 8.37161 3.13753 9.79132 1.95768 11.7753C0.776351 13.7617 0.596922 16.3278 1.93434 18.6034C2.86653 20.1896 4.48421 21.5526 6.85036 22.4945C4.50995 23.457 2.91 24.8341 1.98719 26.4261C0.661722 28.7127 0.833129 31.2825 2.00551 33.2702C3.17717 35.2566 5.35253 36.6714 8.01682 36.6855C9.89877 36.6954 11.9414 36.0092 13.9928 34.4598ZM20.9629 21.1468C21.8292 21.1468 22.4795 21.8237 22.4795 22.4758C22.4795 23.1954 21.7574 23.9342 20.9629 23.9342C20.2379 23.9342 19.5788 23.2657 19.5788 22.4758C19.5788 21.7561 20.1685 21.1468 20.9629 21.1468Z" fill="white" stroke="black" stroke-width="2"/>
</svg>
